<mxfile host="app.diagrams.net" modified="2024-04-18T04:32:39.688Z" agent="Mozilla/5.0 (Windows NT 10.0; Win64; x64) AppleWebKit/537.36 (KHTML, like Gecko) Chrome/123.0.0.0 Safari/537.36" etag="tdNtXvBt7DfUCS9RO2Ys" version="24.2.5" type="device">
  <diagram name="Page-1" id="QjTCoGhviGJUat8b6xfD">
    <mxGraphModel dx="1050" dy="557" grid="1" gridSize="10" guides="1" tooltips="1" connect="1" arrows="1" fold="1" page="1" pageScale="1" pageWidth="850" pageHeight="1100" math="0" shadow="0">
      <root>
        <mxCell id="0" />
        <mxCell id="1" parent="0" />
        <mxCell id="1jFaXi1UJ19IYJtIgRNi-1" value="" style="rounded=0;whiteSpace=wrap;html=1;" vertex="1" parent="1">
          <mxGeometry x="50" y="50" width="780" height="500" as="geometry" />
        </mxCell>
        <mxCell id="1jFaXi1UJ19IYJtIgRNi-4" value="logo" style="rounded=1;whiteSpace=wrap;html=1;" vertex="1" parent="1">
          <mxGeometry x="60" y="60" width="120" height="40" as="geometry" />
        </mxCell>
        <mxCell id="1jFaXi1UJ19IYJtIgRNi-7" value="Email:" style="text;strokeColor=none;fillColor=none;align=left;verticalAlign=middle;spacingLeft=4;spacingRight=4;overflow=hidden;points=[[0,0.5],[1,0.5]];portConstraint=eastwest;rotatable=0;whiteSpace=wrap;html=1;fontSize=17;" vertex="1" parent="1">
          <mxGeometry x="230" y="220" width="70" height="30" as="geometry" />
        </mxCell>
        <mxCell id="1jFaXi1UJ19IYJtIgRNi-8" value="Password:" style="text;strokeColor=none;fillColor=none;align=left;verticalAlign=middle;spacingLeft=4;spacingRight=4;overflow=hidden;points=[[0,0.5],[1,0.5]];portConstraint=eastwest;rotatable=0;whiteSpace=wrap;html=1;fontSize=17;" vertex="1" parent="1">
          <mxGeometry x="230" y="260" width="100" height="30" as="geometry" />
        </mxCell>
        <mxCell id="1jFaXi1UJ19IYJtIgRNi-9" value="" style="rounded=0;whiteSpace=wrap;html=1;" vertex="1" parent="1">
          <mxGeometry x="330" y="225" width="270" height="25" as="geometry" />
        </mxCell>
        <mxCell id="1jFaXi1UJ19IYJtIgRNi-10" value="" style="rounded=0;whiteSpace=wrap;html=1;" vertex="1" parent="1">
          <mxGeometry x="330" y="260" width="270" height="25" as="geometry" />
        </mxCell>
        <mxCell id="1jFaXi1UJ19IYJtIgRNi-11" value="SIGN IN" style="rounded=1;whiteSpace=wrap;html=1;" vertex="1" parent="1">
          <mxGeometry x="230" y="330" width="380" height="30" as="geometry" />
        </mxCell>
        <mxCell id="1jFaXi1UJ19IYJtIgRNi-12" value="SIGN UP" style="rounded=1;whiteSpace=wrap;html=1;" vertex="1" parent="1">
          <mxGeometry x="230" y="370" width="380" height="30" as="geometry" />
        </mxCell>
        <mxCell id="1jFaXi1UJ19IYJtIgRNi-13" value="forgot password" style="text;strokeColor=none;fillColor=none;align=left;verticalAlign=middle;spacingLeft=4;spacingRight=4;overflow=hidden;points=[[0,0.5],[1,0.5]];portConstraint=eastwest;rotatable=0;whiteSpace=wrap;html=1;" vertex="1" parent="1">
          <mxGeometry x="235" y="300" width="105" height="20" as="geometry" />
        </mxCell>
      </root>
    </mxGraphModel>
  </diagram>
</mxfile>
